<svg width="17" height="25" viewBox="0 0 17 25" fill="none" xmlns="http://www.w3.org/2000/svg">
<rect width="17" height="25" fill="#E5E5E5"/>
<g id="rpcfast.com">
<rect width="1920" height="11962.6" transform="translate(-338.383 -20.8394)" fill="white"/>
<g id="div._1_screen">
<rect width="1920" height="1697.56" transform="translate(-338.383 -20.8394)" fill="#FDF2EC"/>
</g>
<g id="div#header">
<rect width="1920" height="67" transform="translate(-338.383 -65.3394)" fill="white" fill-opacity="0.39"/>
<g id="Banner">
<g id="div.navbar-brand">
<g id="Link &#226;&#143;&#181; 639300039b1ac5dfd6f6274b_RPC%20fast%20logo.svg">
<g id="639300039b1ac5dfd6f6274b_RPC%20fast%20logo.svg" clip-path="url(#clip0_0_1)">
<path id="Vector" d="M8.54125 15.635H3.34905V12.2312H8.54125C9.38695 12.2312 10.069 12.0524 10.5877 11.6947C11.1176 11.337 11.501 10.8452 11.7377 10.2192C11.9858 9.59325 12.1098 8.88345 12.1098 8.08985C12.1098 7.32972 11.9858 6.61432 11.7377 5.94364C11.501 5.27296 11.1233 4.73082 10.6046 4.31723C10.0859 3.90364 9.39825 3.69685 8.54125 3.69685H4.49915V24.6892H0.40625V0.276367H8.54125C10.1649 0.276367 11.5517 0.611707 12.7018 1.28239C13.8518 1.95307 14.7313 2.87526 15.3402 4.04896C15.949 5.21148 16.2534 6.54725 16.2534 8.05625C16.2534 9.63235 15.949 10.9849 15.3402 12.1139C14.7313 13.2429 13.8518 14.1147 12.7018 14.7295C11.5517 15.3332 10.1649 15.635 8.54125 15.635Z" fill="#222222"/>
</g>
</g>
</g>
</g>
</g>
</g>
<defs>
<clipPath id="clip0_0_1">
<rect width="139" height="30" fill="white" transform="translate(-18.3828 -2.33936)"/>
</clipPath>
</defs>
</svg>
